<svg version="1.1" id="Layer_1" xmlns="http://www.w3.org/2000/svg" xmlns:xlink="http://www.w3.org/1999/xlink" x="0px" y="0px"
	 width="100%" viewBox="0 0 512 512" enable-background="new 0 0 512 512" xml:space="preserve">
<path fill="#FFFFFF" opacity="1.000000" stroke="none" 
	d="
M0.999997,476.000000 
	C1.000000,330.309265 1.000000,184.618515 1.325942,38.758442 
	C2.028470,38.263668 2.628444,38.005440 2.749511,37.603104 
	C8.054142,19.974562 19.443789,8.402887 37.035259,2.902047 
	C37.508793,2.753974 37.685089,1.655353 38.000000,1.000000 
	C183.690750,1.000000 329.381500,1.000000 475.241577,1.325937 
	C475.736328,2.028466 475.994537,2.628444 476.396881,2.749515 
	C494.025452,8.054114 505.597046,19.443829 511.097931,37.035263 
	C511.246033,37.508789 512.344666,37.685085 513.000000,38.000000 
	C513.000000,183.690750 513.000000,329.381500 512.674072,475.241516 
	C511.971527,475.736267 511.371582,475.994507 511.250519,476.396851 
	C505.945953,494.025482 494.556183,505.597107 476.964661,511.097931 
	C476.491180,511.246033 476.314880,512.344666 476.000000,513.000000 
	C330.309265,513.000000 184.618515,513.000000 38.758450,512.674072 
	C38.263676,511.971497 38.005444,511.371521 37.603100,511.250458 
	C19.974586,505.945801 8.402868,494.556244 2.902039,476.964752 
	C2.753955,476.491211 1.655349,476.314911 0.999997,476.000000 
M100.775810,218.832886 
	C100.620384,218.726013 100.464951,218.619125 100.398682,217.739929 
	C111.973137,174.741119 123.547592,131.742325 135.348969,87.900505 
	C123.484322,87.900505 113.027824,88.059799 102.580833,87.814377 
	C98.908134,87.728111 97.563301,88.837509 96.654427,92.496460 
	C69.634293,201.273712 42.462379,310.013275 15.338571,418.764801 
	C15.073380,419.828064 15.130936,420.971802 15.002497,422.497589 
	C22.652843,422.497589 29.966366,422.387054 37.273647,422.552368 
	C40.170582,422.617889 41.753345,421.642120 42.977112,418.949280 
	C46.829784,410.471710 50.954617,402.117310 55.021893,393.738434 
	C55.546188,392.658386 56.352020,391.715027 57.391426,390.165833 
	C58.396481,391.758575 59.057228,392.643494 59.551552,393.613220 
	C67.768517,409.733490 80.656250,420.363861 98.307091,423.896820 
	C142.158615,432.674011 180.425003,421.184753 209.971298,387.611725 
	C246.237518,346.402954 260.588470,296.855530 257.722504,242.550568 
	C256.198883,213.680405 236.907776,191.859238 209.286957,185.363052 
	C187.201035,180.168640 165.267624,181.594452 143.996185,189.688995 
	C127.372322,196.014969 113.527847,206.554123 100.775810,218.832886 
M399.838623,283.443756 
	C382.198395,284.762573 364.789886,287.409027 347.956085,293.020813 
	C309.981079,305.680237 285.606812,330.032928 280.362610,371.171204 
	C277.147369,396.393433 289.235413,415.860321 313.693756,423.053925 
	C332.872650,428.694763 352.251587,427.549225 371.494843,423.369232 
	C393.050293,418.687012 410.254974,406.310455 426.006714,391.555878 
	C427.378357,390.271088 428.799133,389.038727 431.032349,387.031128 
	C430.395264,399.526459 429.823914,410.732727 429.223969,422.499268 
	C437.031464,422.499268 444.336792,422.336548 451.629425,422.570526 
	C455.082764,422.681305 456.440002,421.622925 457.305115,418.109222 
	C468.755280,371.604675 480.430206,325.155518 492.002045,278.680817 
	C496.018677,262.549225 500.751068,246.559525 500.131775,229.615204 
	C499.366516,208.676819 489.637146,194.266449 469.556488,188.278854 
	C458.865601,185.091080 447.411285,183.689209 436.217438,183.111847 
	C405.989258,181.552750 377.611176,189.768066 350.071625,201.383881 
	C348.941895,201.860367 347.323120,203.408417 347.436523,204.255920 
	C348.570770,212.732758 350.020874,221.167313 351.354156,229.441269 
	C364.484924,224.995148 376.911652,220.250244 389.653259,216.606476 
	C406.286194,211.849899 423.314941,209.702118 440.431580,214.057770 
	C454.630005,217.670853 461.695374,226.840652 462.282166,241.340088 
	C462.835236,255.007736 458.896088,267.860931 455.579620,280.841675 
	C437.021912,281.707703 418.900665,282.553375 399.838623,283.443756 
z"/>
<path fill="#000000" opacity="1.000000" stroke="none" 
	d="
M37.531342,1.000000 
	C37.685089,1.655353 37.508793,2.753974 37.035259,2.902047 
	C19.443789,8.402887 8.054142,19.974562 2.749511,37.603104 
	C2.628444,38.005440 2.028470,38.263668 1.325942,38.294556 
	C1.000000,25.740049 1.000000,13.480098 1.000000,1.000000 
	C13.020000,1.000000 25.041342,1.000000 37.531342,1.000000 
z"/>
<path fill="#000000" opacity="1.000000" stroke="none" 
	d="
M513.000000,37.531342 
	C512.344666,37.685085 511.246033,37.508789 511.097931,37.035263 
	C505.597046,19.443829 494.025452,8.054114 476.396881,2.749515 
	C475.994537,2.628444 475.736328,2.028466 475.705444,1.325937 
	C488.259949,1.000000 500.519897,1.000000 513.000000,1.000000 
	C513.000000,13.020000 513.000000,25.041342 513.000000,37.531342 
z"/>
<path fill="#000000" opacity="1.000000" stroke="none" 
	d="
M0.999997,476.468658 
	C1.655349,476.314911 2.753955,476.491211 2.902039,476.964752 
	C8.402868,494.556244 19.974586,505.945801 37.603100,511.250458 
	C38.005444,511.371521 38.263676,511.971497 38.294563,512.674072 
	C25.740049,513.000000 13.480098,513.000000 1.000000,513.000000 
	C1.000000,500.980011 1.000000,488.958649 0.999997,476.468658 
z"/>
<path fill="#000000" opacity="1.000000" stroke="none" 
	d="
M476.468628,513.000000 
	C476.314880,512.344666 476.491180,511.246033 476.964661,511.097931 
	C494.556183,505.597107 505.945953,494.025482 511.250519,476.396851 
	C511.371582,475.994507 511.971527,475.736267 512.674072,475.705414 
	C513.000000,488.259949 513.000000,500.519897 513.000000,513.000000 
	C500.980011,513.000000 488.958649,513.000000 476.468628,513.000000 
z"/>
<path fill="#565656" opacity="1.000000" stroke="none" 
	d="
M101.201920,219.205322 
	C113.527847,206.554123 127.372322,196.014969 143.996185,189.688995 
	C165.267624,181.594452 187.201035,180.168640 209.286957,185.363052 
	C236.907776,191.859238 256.198883,213.680405 257.722504,242.550568 
	C260.588470,296.855530 246.237518,346.402954 209.971298,387.611725 
	C180.425003,421.184753 142.158615,432.674011 98.307091,423.896820 
	C80.656250,420.363861 67.768517,409.733490 59.551552,393.613220 
	C59.057228,392.643494 58.396481,391.758575 57.391426,390.165833 
	C56.352020,391.715027 55.546188,392.658386 55.021893,393.738434 
	C50.954617,402.117310 46.829784,410.471710 42.977112,418.949280 
	C41.753345,421.642120 40.170582,422.617889 37.273647,422.552368 
	C29.966366,422.387054 22.652843,422.497589 15.002497,422.497589 
	C15.130936,420.971802 15.073380,419.828064 15.338571,418.764801 
	C42.462379,310.013275 69.634293,201.273712 96.654427,92.496460 
	C97.563301,88.837509 98.908134,87.728111 102.580833,87.814377 
	C113.027824,88.059799 123.484322,87.900505 135.348969,87.900505 
	C123.547592,131.742325 111.973137,174.741119 100.230698,218.386444 
	C100.143509,219.309280 100.224304,219.585602 100.305099,219.861938 
	C100.604042,219.643066 100.902977,219.424194 101.201920,219.205322 
M210.036377,318.490540 
	C210.897369,315.626038 211.865326,312.788788 212.602066,309.892670 
	C217.621033,290.163574 221.928696,270.376556 219.056747,249.769165 
	C216.428665,230.911652 205.955200,218.665955 187.992706,214.523529 
	C183.176697,213.412888 178.119888,213.074554 173.156677,212.917511 
	C137.701050,211.795578 111.845657,227.122635 96.721016,259.185547 
	C90.938187,271.444641 86.286705,284.382629 82.526642,297.417114 
	C76.662460,317.745697 72.350296,338.436768 74.921158,359.912781 
	C76.923737,376.641693 84.546577,389.038696 101.493210,393.546692 
	C131.270477,401.467712 161.649918,395.696198 183.647324,369.342499 
	C196.012939,354.527985 203.866745,337.396057 210.036377,318.490540 
z"/>
<path fill="#565656" opacity="1.000000" stroke="none" 
	d="
M400.309021,283.421387 
	C418.900665,282.553375 437.021912,281.707703 455.579620,280.841675 
	C458.896088,267.860931 462.835236,255.007736 462.282166,241.340088 
	C461.695374,226.840652 454.630005,217.670853 440.431580,214.057770 
	C423.314941,209.702118 406.286194,211.849899 389.653259,216.606476 
	C376.911652,220.250244 364.484924,224.995148 351.354156,229.441269 
	C350.020874,221.167313 348.570770,212.732758 347.436523,204.255920 
	C347.323120,203.408417 348.941895,201.860367 350.071625,201.383881 
	C377.611176,189.768066 405.989258,181.552750 436.217438,183.111847 
	C447.411285,183.689209 458.865601,185.091080 469.556488,188.278854 
	C489.637146,194.266449 499.366516,208.676819 500.131775,229.615204 
	C500.751068,246.559525 496.018677,262.549225 492.002045,278.680817 
	C480.430206,325.155518 468.755280,371.604675 457.305115,418.109222 
	C456.440002,421.622925 455.082764,422.681305 451.629425,422.570526 
	C444.336792,422.336548 437.031464,422.499268 429.223969,422.499268 
	C429.823914,410.732727 430.395264,399.526459 431.032349,387.031128 
	C428.799133,389.038727 427.378357,390.271088 426.006714,391.555878 
	C410.254974,406.310455 393.050293,418.687012 371.494843,423.369232 
	C352.251587,427.549225 332.872650,428.694763 313.693756,423.053925 
	C289.235413,415.860321 277.147369,396.393433 280.362610,371.171204 
	C285.606812,330.032928 309.981079,305.680237 347.956085,293.020813 
	C364.789886,287.409027 382.198395,284.762573 400.309021,283.421387 
M340.152985,395.623962 
	C347.592285,396.094635 355.068390,397.283020 362.464050,396.903381 
	C386.062744,395.691956 406.355988,386.652618 422.562744,369.277924 
	C438.855408,351.811188 443.602386,329.507721 448.512085,306.621979 
	C446.295502,306.621979 444.668396,306.567200 443.045898,306.630859 
	C431.731476,307.074554 420.407074,307.362122 409.106781,308.045380 
	C391.970551,309.081573 374.890320,310.776764 358.710236,317.060577 
	C338.372589,324.959076 324.996643,339.133636 320.343842,360.840729 
	C316.463196,378.945465 322.661163,390.135590 340.152985,395.623962 
z"/>
<path fill="#FEFEFE" opacity="1.000000" stroke="none" 
	d="
M209.946411,318.878784 
	C203.866745,337.396057 196.012939,354.527985 183.647324,369.342499 
	C161.649918,395.696198 131.270477,401.467712 101.493210,393.546692 
	C84.546577,389.038696 76.923737,376.641693 74.921158,359.912781 
	C72.350296,338.436768 76.662460,317.745697 82.526642,297.417114 
	C86.286705,284.382629 90.938187,271.444641 96.721016,259.185547 
	C111.845657,227.122635 137.701050,211.795578 173.156677,212.917511 
	C178.119888,213.074554 183.176697,213.412888 187.992706,214.523529 
	C205.955200,218.665955 216.428665,230.911652 219.056747,249.769165 
	C221.928696,270.376556 217.621033,290.163574 212.602066,309.892670 
	C211.865326,312.788788 210.897369,315.626038 209.946411,318.878784 
z"/>
<path fill="#FFFFFF" opacity="1.000000" stroke="none" 
	d="
M100.988861,219.019104 
	C100.902977,219.424194 100.604042,219.643066 100.305099,219.861938 
	C100.224304,219.585602 100.143509,219.309280 100.186111,218.772583 
	C100.464951,218.619125 100.620384,218.726013 100.988861,219.019104 
z"/>
<path fill="#FEFEFE" opacity="1.000000" stroke="none" 
	d="
M339.766296,395.484802 
	C322.661163,390.135590 316.463196,378.945465 320.343842,360.840729 
	C324.996643,339.133636 338.372589,324.959076 358.710236,317.060577 
	C374.890320,310.776764 391.970551,309.081573 409.106781,308.045380 
	C420.407074,307.362122 431.731476,307.074554 443.045898,306.630859 
	C444.668396,306.567200 446.295502,306.621979 448.512085,306.621979 
	C443.602386,329.507721 438.855408,351.811188 422.562744,369.277924 
	C406.355988,386.652618 386.062744,395.691956 362.464050,396.903381 
	C355.068390,397.283020 347.592285,396.094635 339.766296,395.484802 
z"/>
</svg>